HIERARCHY
ROOT Hips
{
	OFFSET -0.179506 -22.333345 2.821913
	CHANNELS 6 Xposition Yposition Zposition Zrotation Yrotation Xrotation 
	JOINT LeftUpLeg
	{
		OFFSET 6.951974 -9.140623 -0.681533
		CHANNELS 3 Zrotation Yrotation Xrotation
		JOINT LeftLeg
		{
			OFFSET 3.427654 -37.519855 -0.449580
			CHANNELS 3 Zrotation Yrotation Xrotation
			JOINT LeftFoot
			{
				OFFSET -1.359570 -39.796059 -4.369333
				CHANNELS 3 Zrotation Yrotation Xrotation
				JOINT LeftToe
				{
					OFFSET 2.635814 -5.579078 11.928840
					CHANNELS 3 Zrotation Yrotation Xrotation
					End Site
					{
						OFFSET 0.000000 0.000000 0.000000
					}
				}
			}
		}
	}
	JOINT RightUpLeg
	{
		OFFSET -6.767048 -9.052170 -0.431982
		CHANNELS 3 Zrotation Yrotation Xrotation
		JOINT RightLeg
		{
			OFFSET -3.829005 -38.256897 -0.885003
			CHANNELS 3 Zrotation Yrotation Xrotation
			JOINT RightFoot
			{
				OFFSET 1.577377 -39.841461 -4.231180
				CHANNELS 3 Zrotation Yrotation Xrotation
				JOINT RightToe
				{
					OFFSET -2.537174 -4.814398 12.334795
					CHANNELS 3 Zrotation Yrotation Xrotation
					End Site
					{
						OFFSET 0.000000 0.000000 0.000000
					}
				}
			}
		}
	}
	JOINT Spine
	{
		OFFSET -0.253288 10.896323 -2.669631
		CHANNELS 3 Zrotation Yrotation Xrotation
		JOINT Spine1
		{
			OFFSET 0.548704 13.518043 0.109247
			CHANNELS 3 Zrotation Yrotation Xrotation
			JOINT Spine2
			{
				OFFSET 0.145701 5.292222 2.542457
				CHANNELS 3 Zrotation Yrotation Xrotation
				JOINT Neck
				{
					OFFSET -0.277840 21.387037 -4.285703
					CHANNELS 3 Zrotation Yrotation Xrotation
					JOINT Head
					{
						OFFSET 0.515184 6.496960 5.134897
						CHANNELS 3 Zrotation Yrotation Xrotation
						End Site
						{
							OFFSET 0.000000 0.000000 0.000000
						}
					}
				}
				JOINT LeftShoulder
				{
					OFFSET 7.884473 12.174932 -3.408961
					CHANNELS 3 Zrotation Yrotation Xrotation
					JOINT LeftArm
					{
						OFFSET 9.097692 3.046888 -0.886815
						CHANNELS 3 Zrotation Yrotation Xrotation
						JOINT LeftForeArm
						{
							OFFSET 25.961220 -1.277207 -2.745643
							CHANNELS 3 Zrotation Yrotation Xrotation
							JOINT LeftHand
							{
								OFFSET 24.923361 0.898606 -0.117091
								CHANNELS 3 Zrotation Yrotation Xrotation
								End Site
								{
									OFFSET 0.000000 0.000000 0.000000
								}
							}
						}
					}
				}
				JOINT RightShoulder
				{
					OFFSET -8.175920 11.883285 -3.861528
					CHANNELS 3 Zrotation Yrotation Xrotation
					JOINT RightArm
					{
						OFFSET -9.601238 3.255117 -0.914307
						CHANNELS 3 Zrotation Yrotation Xrotation
						JOINT RightForeArm
						{
							OFFSET -25.374195 -1.332924 -2.140099
							CHANNELS 3 Zrotation Yrotation Xrotation
							JOINT RightHand
							{
								OFFSET -25.529810 0.777228 -0.555919
								CHANNELS 3 Zrotation Yrotation Xrotation
								End Site
								{
									OFFSET 0.000000 0.000000 0.000000
								}
							}
						}
					}
				}
			}
		}
	}
}
MOTION
Frames: 16
Frame Time: 0.033333
-104.770447 -24.832653 91.022057 141.103541 -3.287816 82.511733 -4.904679 -0.853917 2.014892 -4.736219 -6.979503 15.911744 8.171003 14.299175 -16.120279 nan nan nan -2.004479 1.533892 -12.627396 -0.478035 -6.016149 62.478064 2.411277 -6.707382 -12.636522 nan nan nan -3.199038 -1.740650 11.453912 1.526836 -4.002429 10.138035 -1.720380 -2.394188 -4.240673 0.560111 -0.050535 7.072745 2.560916 0.503619 11.339856 -27.664769 -1.037058 1.355348 -53.174750 -4.313383 13.142093 6.025596 -27.843570 2.667928 -9.317756 -13.231235 3.485641 26.158624 2.784375 2.230180 55.016233 -3.227002 13.521140 -13.783470 28.099846 -4.386466 11.162457 13.450038 -0.977172 
-103.987152 -23.933771 91.181313 141.575957 -3.084230 82.438121 -4.742871 -0.442365 3.548928 -4.453197 -7.666383 14.667711 7.884125 14.269065 -16.225118 nan nan nan -1.843324 1.708057 -13.659314 -0.096992 -6.549913 60.683901 2.373326 -6.813849 -13.522562 nan nan nan -2.972366 -2.331251 11.803854 1.560641 -3.945747 9.699550 -1.621437 -2.597806 -4.017765 0.448728 0.044122 7.095077 2.451874 0.509930 11.206924 -27.604664 -1.023843 1.370864 -53.053434 -4.602586 13.154381 6.072510 -28.677683 2.778215 -9.015254 -13.268429 3.036871 25.968480 2.522139 2.201529 55.044454 -3.564431 13.371879 -13.764730 28.151971 -4.505090 11.066570 13.065221 -1.701684 
-103.166420 -23.049015 91.305290 142.017363 -2.883233 82.418719 -4.453876 0.012350 5.076711 -4.244001 -8.273389 13.279148 7.560524 14.148340 -16.221527 nan nan nan -1.673323 1.922958 -14.670231 0.219210 -7.079850 58.693579 2.464757 -6.852447 -14.175515 nan nan nan -2.867766 -2.912102 12.063027 1.667440 -3.916844 9.334062 -1.510718 -2.744888 -3.873458 0.302061 0.159325 7.184270 2.439399 0.505469 11.121879 -27.536363 -0.950340 1.348527 -52.954696 -4.889698 13.099574 5.982449 -29.376001 2.693731 -8.479294 -13.629851 2.666910 25.835618 2.334549 2.154846 55.000103 -3.966161 13.271609 -13.622666 27.957757 -4.424391 10.829239 13.231258 -1.826734 
-102.343468 -22.171515 91.393784 142.428343 -2.738191 82.451337 -4.163679 0.452490 6.522257 -4.008666 -8.609199 11.883600 7.217701 14.016376 -16.168238 nan nan nan -1.636819 2.203166 -15.730940 0.478801 -7.594237 56.670132 2.642926 -6.948948 -14.715304 nan nan nan -2.837834 -3.493246 12.216751 1.740837 -3.863846 8.969504 -1.430613 -2.913345 -3.619848 0.265686 0.372803 7.173406 2.484973 0.448349 11.014246 -27.422815 -0.866038 1.368454 -52.915035 -5.335405 12.870022 5.887559 -29.858023 2.387595 -8.089659 -14.213914 2.150598 25.808035 2.113684 2.050128 54.958980 -4.212040 13.187044 -13.483820 27.596640 -4.145704 10.730844 13.378083 -1.565699 
-101.504799 -21.298632 91.468399 142.794051 -2.633501 82.459794 -3.846265 0.963544 7.958916 -3.821608 -8.927522 10.586547 6.827796 13.852519 -16.220271 nan nan nan -1.664724 2.342056 -16.729492 0.656791 -8.000275 54.564576 2.828510 -7.140416 -15.130400 nan nan nan -2.830874 -4.001099 12.365867 1.781179 -3.794251 8.661649 -1.343876 -3.113121 -3.431643 0.271729 0.572237 7.244261 2.468362 0.359851 10.839050 -27.271405 -0.830480 1.449278 -52.931156 -5.854545 12.693533 5.897940 -30.134306 2.112097 -7.811676 -14.837842 1.723567 25.785759 1.866678 1.858275 54.989111 -4.475115 13.132233 -13.381273 27.117183 -3.962019 10.755444 13.398819 -1.491678 
-100.652046 -20.416946 91.505165 143.166799 -2.535945 82.466488 -3.491784 1.460210 9.412106 -3.713851 -9.404867 9.297967 6.457460 13.717204 -16.388152 nan nan nan -1.688762 2.420993 -17.553885 0.864836 -8.403461 52.181287 2.997379 -7.318846 -15.614568 nan nan nan -2.831899 -4.453941 12.469343 1.838771 -3.753177 8.414715 -1.204146 -3.267510 -3.273828 0.202759 0.698618 7.379254 2.484005 0.224985 10.553137 -27.138671 -0.862133 1.568302 -52.892481 -6.307021 12.630807 5.802067 -30.678194 2.102516 -7.395237 -15.232437 1.333573 25.638458 1.665661 1.857734 55.026620 -4.766971 13.008429 -13.267562 26.781291 -3.839665 10.563946 13.401275 -1.864272 
-99.792282 -19.524300 91.504128 143.529621 -2.451779 82.466556 -3.136177 1.927886 10.941513 -3.590820 -9.845993 7.903326 6.114809 13.628767 -16.486326 nan nan nan -1.787134 2.480792 -18.189852 1.156746 -8.944254 49.532932 3.304718 -7.587701 -16.058839 nan nan nan -2.859612 -4.935291 12.565905 1.882001 -3.704080 8.124295 -1.053977 -3.401768 -3.003030 0.141486 0.862178 7.297507 2.542500 0.059301 10.467925 -27.081308 -0.816069 1.707284 -52.715279 -6.642816 12.545328 5.640159 -31.772007 2.253414 -6.792089 -15.282759 0.842093 25.579055 1.437413 1.943045 54.919260 -4.983819 12.876290 -13.185186 26.734802 -3.639449 10.218444 13.230842 -2.223188 
-98.973976 -18.666376 91.475479 143.827402 -2.433986 82.473969 -2.841375 2.442253 12.410151 -3.414883 -10.186528 6.568566 5.851408 13.472852 -16.530569 nan nan nan -1.972087 2.486969 -18.869825 1.339635 -9.518976 46.829774 3.359578 -8.028341 -16.234735 nan nan nan -2.945097 -5.395997 12.795324 1.926330 -3.635867 7.809895 -0.911333 -3.508272 -2.873578 0.104185 0.952110 7.151724 2.553260 -0.024359 10.571577 -26.972111 -0.766352 1.835596 -52.633041 -7.009533 12.543885 5.556055 -32.724747 2.368777 -6.202343 -15.222424 0.513796 25.452984 1.143981 1.950542 54.858773 -5.154218 12.704158 -13.055817 26.675875 -3.449143 9.939713 13.095792 -2.318977 
-98.160202 -17.835615 91.406387 144.177856 -2.418518 82.585693 -2.511673 2.909638 13.594597 -3.212000 -10.455108 5.486022 5.654438 13.239595 -16.570449 nan nan nan -2.139019 2.400346 -19.636821 1.381795 -10.188801 43.997616 3.143874 -8.449792 -16.074969 nan nan nan -3.036279 -5.814750 12.987807 1.999507 -3.625719 7.479124 -0.741618 -3.663302 -2.786305 0.135691 0.932582 7.055331 2.466212 -0.092317 10.550925 -26.836087 -0.679662 1.859487 -52.638443 -7.438925 12.691298 5.561264 -33.340651 2.380717 -5.698088 -15.408913 0.250948 25.284554 0.907463 1.965852 54.873302 -5.330026 12.562692 -12.945764 26.485875 -3.450199 9.785725 13.042315 -2.496611 
-97.334335 -17.012718 91.288536 144.490865 -2.403604 82.783009 -2.163157 3.225041 14.711977 -3.075489 -10.741989 4.379840 5.235226 13.027705 -16.636936 nan nan nan -2.282064 2.344828 -20.339630 1.618631 -10.629812 40.903270 3.102642 -8.784405 -16.105116 nan nan nan -3.135673 -6.189698 12.938948 2.054999 -3.614955 7.259098 -0.541193 -3.854375 -2.568376 0.193275 0.846293 7.014241 2.380396 -0.228431 10.422982 -26.736305 -0.594040 1.887880 -52.617176 -7.976994 12.760813 5.616396 -33.929132 2.262896 -5.385586 -15.744566 -0.179751 25.116705 0.785066 2.018064 54.945897 -5.414044 12.495138 -12.882401 26.056068 -3.457453 9.871930 12.865718 -2.924920 
-96.491165 -16.194115 91.138573 144.711222 -2.467753 83.005702 -1.882202 3.489077 15.825858 -2.990020 -11.023340 3.283862 4.717597 12.870756 -16.698548 nan nan nan -2.425712 2.232022 -20.978566 1.912529 -10.577820 37.710997 3.224498 -8.896190 -16.238809 nan nan nan -3.303462 -6.417548 12.762109 2.102112 -3.629486 7.177469 -0.386222 -4.008265 -2.379792 0.147357 0.935840 6.955129 2.474696 -0.467505 10.168256 -26.581728 -0.643024 1.988090 -52.523324 -8.423389 12.810302 5.640650 -34.792575 2.191090 -5.172251 -16.000978 -0.332540 25.040509 0.682183 2.082414 54.969264 -5.535218 12.403437 -12.815478 25.634504 -3.324909 9.868505 12.632245 -3.074853 
-95.636314 -15.388644 90.974762 144.913113 -2.529773 83.274553 -1.576042 3.813904 16.775470 -2.879241 -11.234441 2.386121 4.285312 12.745848 -16.797487 nan nan nan -2.539935 1.945941 -21.633279 2.102351 -10.402169 34.508231 3.194687 -8.800152 -15.934841 nan nan nan -3.472398 -6.577380 12.604099 2.191143 -3.718354 7.088093 -0.249352 -4.132258 -2.404290 -0.079286 1.163666 6.879280 2.707656 -0.684471 10.005491 -26.409663 -0.746872 2.135795 -52.469682 -8.741445 12.921260 5.758075 -35.605362 2.017324 -5.134205 -16.322181 -0.399117 25.089632 0.554889 2.194487 54.835658 -5.788449 12.294671 -12.828477 25.394261 -3.147299 9.955891 12.530897 -3.052127 
-94.794350 -14.573603 90.777283 145.068739 -2.656345 83.547373 -1.331094 4.147322 17.627382 -2.812781 -11.453278 1.683776 4.018982 12.681271 -17.044769 nan nan nan -2.654702 1.596402 -22.196005 2.129173 -10.357384 31.163926 3.244847 -8.875291 -15.508294 nan nan nan -3.629828 -6.753741 12.414200 2.215069 -3.807784 7.072608 -0.159440 -4.200900 -2.506854 -0.266518 1.266529 6.785851 2.986019 -0.788842 10.005195 -26.246941 -0.784983 2.274225 -52.418999 -9.143884 13.012596 5.907074 -36.204254 1.883820 -5.066449 -16.611028 -0.414274 25.073861 0.416844 2.362466 54.795193 -5.956465 12.107939 -12.818513 25.129064 -3.052687 10.064741 12.544664 -2.904492 
-93.993172 -13.770690 90.528931 145.319352 -2.849263 83.908904 -1.152021 4.396494 18.247884 -2.858143 -11.698461 1.198857 3.734013 12.527120 -17.354312 nan nan nan -2.787391 1.177941 -22.825747 1.967328 -10.345822 27.721421 3.363656 -9.111043 -14.863745 nan nan nan -3.791881 -6.887663 12.206864 2.261064 -3.930419 6.963967 -0.071650 -4.282763 -2.517043 -0.293776 1.032913 6.768586 3.100724 -1.032939 9.840723 -26.022367 -0.751056 2.353567 -52.520808 -9.743613 13.148659 6.004066 -36.639874 1.747083 -4.872185 -16.786429 -0.527678 24.846296 0.143207 2.403531 54.939317 -6.047767 11.921553 -12.738327 24.792991 -3.020355 9.974466 12.379752 -2.855017 
-93.169868 -12.968030 90.255058 145.618571 -3.063955 84.234462 -0.957203 4.585433 18.869124 -2.979308 -11.895102 0.803058 3.317379 12.311219 -17.692032 nan nan nan -2.910920 0.697532 -23.348531 1.833403 -10.378957 24.235016 3.323876 -9.412603 -14.195185 nan nan nan -3.973350 -6.950937 12.043726 2.330785 -4.069116 6.777731 0.026928 -4.451800 -2.446746 -0.203451 0.719496 6.780092 3.098324 -1.370677 9.704927 -25.873755 -0.707817 2.426156 -52.571124 -10.374364 13.343492 6.146521 -37.070998 1.673702 -4.717911 -16.986590 -0.637773 24.751598 -0.118954 2.424346 54.966332 -6.229288 11.860737 -12.789667 24.551502 -3.029088 9.954258 12.192814 -3.023975 
-92.313576 -12.126824 89.988525 145.818120 -3.305117 84.423804 -0.844647 4.879990 19.691353 -2.974430 -12.177247 0.356317 2.793653 12.327455 -18.037530 nan nan nan -2.983841 0.261742 -23.477845 1.911811 -10.369683 20.465577 3.261813 -9.748466 -13.914058 nan nan nan -4.204685 -7.006041 11.898643 2.331576 -4.207197 6.712858 0.124770 -4.582231 -2.457777 -0.259032 0.690966 6.747298 3.272183 -1.491088 9.654203 -25.795142 -0.698689 2.499205 -52.484517 -10.842154 13.450901 6.248068 -37.515978 1.462585 -4.559389 -17.231013 -0.839623 24.811431 -0.204651 2.567203 54.894267 -6.454343 11.816403 -12.852106 24.240678 -3.075032 10.003180 12.085939 -3.167635 
